<?xml version="1.0" standalone="no"?>
<!DOCTYPE svg PUBLIC "-//W3C//DTD SVG 20010904//EN"
 "http://www.w3.org/TR/2001/REC-SVG-20010904/DTD/svg10.dtd">
<svg version="1.0" xmlns="http://www.w3.org/2000/svg"
 width="928.000000pt" height="928.000000pt" viewBox="0 0 928.000000 928.000000"
 preserveAspectRatio="xMidYMid meet">
<metadata>
Created by potrace 1.14, written by Peter Selinger 2001-2017
</metadata>
<g transform="translate(0.000000,928.000000) scale(0.100000,-0.100000)"
fill="#000000" stroke="none">
<path d="M4488 9255 c-2 -2 -61 -5 -133 -9 -71 -3 -143 -8 -160 -10 -16 -2
-57 -7 -90 -11 -33 -3 -71 -8 -85 -10 -14 -2 -43 -6 -65 -10 -23 -3 -52 -7
-65 -10 -13 -2 -60 -9 -104 -16 -128 -17 -198 -34 -411 -98 -520 -156 -894
-331 -1308 -610 -70 -47 -161 -106 -202 -131 -127 -77 -226 -164 -428 -373
-249 -257 -259 -268 -376 -412 -322 -397 -563 -814 -739 -1281 -33 -88 -67
-181 -75 -209 -8 -27 -23 -67 -32 -88 -15 -36 -80 -261 -91 -316 -3 -12 -11
-51 -19 -85 -8 -33 -16 -72 -18 -86 -3 -14 -8 -43 -12 -65 -4 -22 -9 -49 -11
-59 -4 -20 -21 -142 -29 -206 -2 -19 -7 -71 -11 -115 -3 -44 -8 -96 -10 -115
-5 -55 -5 -447 0 -530 15 -221 39 -422 70 -585 2 -11 7 -38 10 -60 26 -149
116 -483 177 -662 135 -392 278 -689 512 -1067 216 -350 585 -752 877 -957 19
-13 43 -32 54 -42 11 -9 25 -17 32 -17 7 0 14 -4 16 -8 2 -5 46 -32 98 -62 52
-30 97 -56 100 -60 12 -14 195 -134 310 -202 451 -270 936 -458 1450 -561 122
-25 153 -31 235 -42 22 -4 50 -8 63 -10 13 -2 53 -7 90 -11 37 -3 78 -8 92
-10 136 -17 567 -24 722 -11 43 3 80 2 83 -3 3 -5 20 -7 38 -5 17 3 55 7 82
10 28 3 66 8 85 11 19 3 50 7 68 9 50 6 114 16 147 21 17 3 44 7 60 10 17 2
53 8 80 14 28 5 64 12 80 15 75 13 148 34 155 45 6 10 127 48 268 84 91 23
330 117 514 201 385 178 745 397 1027 628 106 87 312 288 308 301 -2 6 29 45
69 86 225 234 458 542 627 827 106 179 178 324 303 608 7 17 41 88 75 160 40
85 71 167 89 240 32 125 91 414 115 555 9 52 18 106 20 120 3 14 7 45 11 70 3
25 7 56 10 70 2 14 6 50 10 80 3 30 7 65 9 78 20 122 28 644 13 809 -21 219
-67 450 -158 772 -33 118 -60 220 -60 226 0 7 -9 20 -19 29 -11 10 -27 41 -36
69 -19 61 -77 210 -110 282 -12 28 -35 79 -51 115 -41 94 -145 294 -200 386
-26 43 -52 88 -58 99 -45 79 -238 356 -307 440 -200 243 -297 348 -491 530
-41 39 -87 81 -104 95 -16 14 -81 70 -144 124 -419 362 -937 638 -1549 825
-328 101 -758 191 -775 162 -4 -5 -16 -8 -29 -5 -12 2 -47 6 -77 8 -30 3 -91
7 -135 11 -75 6 -472 14 -477 10z"/>
</g>
</svg>
